<mxfile host="app.diagrams.net" modified="2024-01-16T17:40:00.088Z" agent="Mozilla/5.0 (Windows NT 10.0; Win64; x64; rv:121.0) Gecko/20100101 Firefox/121.0" etag="7EsvrC-Vl_gPemg2CKqC" version="22.1.18" type="github">
  <diagram name="Page-1" id="bYvlhwRNCjD5cxy5CYTg">
    <mxGraphModel dx="1434" dy="706" grid="1" gridSize="10" guides="1" tooltips="1" connect="1" arrows="1" fold="1" page="1" pageScale="1" pageWidth="850" pageHeight="1100" math="0" shadow="0">
      <root>
        <mxCell id="0" />
        <mxCell id="1" parent="0" />
        <mxCell id="RMzI4ENnMjy7okjES2R2-1" value="&lt;font style=&quot;font-size: 14px;&quot;&gt;Base&lt;br&gt;Behaviour&lt;/font&gt;" style="ellipse;whiteSpace=wrap;html=1;aspect=fixed;" vertex="1" parent="1">
          <mxGeometry x="320" y="200" width="80" height="80" as="geometry" />
        </mxCell>
        <mxCell id="RMzI4ENnMjy7okjES2R2-2" value="Player&lt;br&gt;Sighted" style="ellipse;whiteSpace=wrap;html=1;aspect=fixed;" vertex="1" parent="1">
          <mxGeometry x="400" y="320" width="80" height="80" as="geometry" />
        </mxCell>
        <mxCell id="RMzI4ENnMjy7okjES2R2-3" value="Player&lt;br&gt;Lost" style="ellipse;whiteSpace=wrap;html=1;aspect=fixed;" vertex="1" parent="1">
          <mxGeometry x="480" y="200" width="80" height="80" as="geometry" />
        </mxCell>
        <mxCell id="RMzI4ENnMjy7okjES2R2-4" value="" style="endArrow=classic;html=1;rounded=0;entryX=0.155;entryY=0.105;entryDx=0;entryDy=0;entryPerimeter=0;exitX=1;exitY=1;exitDx=0;exitDy=0;" edge="1" parent="1" source="RMzI4ENnMjy7okjES2R2-1" target="RMzI4ENnMjy7okjES2R2-2">
          <mxGeometry width="50" height="50" relative="1" as="geometry">
            <mxPoint x="300" y="360" as="sourcePoint" />
            <mxPoint x="350" y="310" as="targetPoint" />
          </mxGeometry>
        </mxCell>
        <mxCell id="RMzI4ENnMjy7okjES2R2-5" value="" style="endArrow=classic;html=1;rounded=0;entryX=0;entryY=1;entryDx=0;entryDy=0;exitX=1;exitY=0;exitDx=0;exitDy=0;" edge="1" parent="1" source="RMzI4ENnMjy7okjES2R2-2" target="RMzI4ENnMjy7okjES2R2-3">
          <mxGeometry width="50" height="50" relative="1" as="geometry">
            <mxPoint x="370" y="290" as="sourcePoint" />
            <mxPoint x="422" y="338" as="targetPoint" />
          </mxGeometry>
        </mxCell>
        <mxCell id="RMzI4ENnMjy7okjES2R2-6" value="" style="endArrow=classic;html=1;rounded=0;entryX=1;entryY=0.5;entryDx=0;entryDy=0;exitX=0;exitY=0.5;exitDx=0;exitDy=0;" edge="1" parent="1" source="RMzI4ENnMjy7okjES2R2-3" target="RMzI4ENnMjy7okjES2R2-1">
          <mxGeometry width="50" height="50" relative="1" as="geometry">
            <mxPoint x="478" y="342" as="sourcePoint" />
            <mxPoint x="530" y="290" as="targetPoint" />
          </mxGeometry>
        </mxCell>
        <mxCell id="RMzI4ENnMjy7okjES2R2-7" value="" style="endArrow=none;dashed=1;html=1;rounded=0;exitX=1;exitY=0.5;exitDx=0;exitDy=0;" edge="1" parent="1" source="RMzI4ENnMjy7okjES2R2-3">
          <mxGeometry width="50" height="50" relative="1" as="geometry">
            <mxPoint x="650" y="280" as="sourcePoint" />
            <mxPoint x="680" y="240" as="targetPoint" />
          </mxGeometry>
        </mxCell>
        <mxCell id="RMzI4ENnMjy7okjES2R2-8" value="Some&lt;br&gt;Strategy" style="ellipse;whiteSpace=wrap;html=1;" vertex="1" parent="1">
          <mxGeometry x="80" y="200" width="120" height="80" as="geometry" />
        </mxCell>
        <mxCell id="RMzI4ENnMjy7okjES2R2-9" value="Some&lt;br&gt;Strategy" style="ellipse;whiteSpace=wrap;html=1;" vertex="1" parent="1">
          <mxGeometry x="380" y="480" width="120" height="80" as="geometry" />
        </mxCell>
        <mxCell id="RMzI4ENnMjy7okjES2R2-10" value="" style="endArrow=none;dashed=1;html=1;rounded=0;exitX=1;exitY=0.5;exitDx=0;exitDy=0;" edge="1" parent="1">
          <mxGeometry width="50" height="50" relative="1" as="geometry">
            <mxPoint x="200" y="239.66" as="sourcePoint" />
            <mxPoint x="320" y="239.66" as="targetPoint" />
          </mxGeometry>
        </mxCell>
        <mxCell id="RMzI4ENnMjy7okjES2R2-11" value="" style="endArrow=none;dashed=1;html=1;rounded=0;exitX=0.5;exitY=0;exitDx=0;exitDy=0;entryX=0.5;entryY=1;entryDx=0;entryDy=0;" edge="1" parent="1" source="RMzI4ENnMjy7okjES2R2-9" target="RMzI4ENnMjy7okjES2R2-2">
          <mxGeometry width="50" height="50" relative="1" as="geometry">
            <mxPoint x="210" y="249.66" as="sourcePoint" />
            <mxPoint x="330" y="249.66" as="targetPoint" />
          </mxGeometry>
        </mxCell>
        <mxCell id="RMzI4ENnMjy7okjES2R2-12" value="Some&lt;br&gt;Strategy" style="ellipse;whiteSpace=wrap;html=1;" vertex="1" parent="1">
          <mxGeometry x="680" y="200" width="120" height="80" as="geometry" />
        </mxCell>
      </root>
    </mxGraphModel>
  </diagram>
</mxfile>
